PathFileType	4	(X/Y/Z)	C:\Users\WrightLab\Desktop\Jo\P5V139.trc
DataRate	CameraRate	NumFrames	NumMarkers	Units	OrigDataRate	OrigDataStartFrame	OrigNumFrames
100.00	100.00	       21	19	mm	100.00	357	       571
Frame#	Time	Headset_Front			Headset_Back			Headset_Left			Headset_Right			Left_Shoulder			Right_Shoulder			Sternum			C7			Left Elbow			Right Elbow			Left Wrist			Right Wrist			Left ASIS			Right ASIS			S2			Left Knee			Right Knee			Left Ankle			Right Ankle			
		X1	Y1	Z1	X2	Y2	Z2	X3	Y3	Z3	X4	Y4	Z4	X5	Y5	Z5	X6	Y6	Z6	X7	Y7	Z7	X8	Y8	Z8	X9	Y9	Z9	X10	Y10	Z10	X11	Y11	Z11	X12	Y12	Z12	X13	Y13	Z13	X14	Y14	Z14	X15	Y15	Z15	X16	Y16	Z16	X17	Y17	Z17	X18	Y18	Z18	X19	Y19	Z19	

357	3.560	53.71747	1908.80420	2603.78394	-698.03198	1340.14111	1383.17041							-721.99481	1530.30029	1165.34302	-894.93555	1483.20862	1318.61536							-450.89386	1215.87866	1144.66052	-1010.17017	1230.17627	1245.91638	-487.21075	1195.12329	1356.11194	-914.72284	1113.68628	1426.25757	-578.27887	942.14160	1383.29590	-857.50647	971.39453	1387.96741	-728.61456	972.94189	1083.44189	-621.02234	502.00189	1412.63220	-908.23126	510.58578	1228.46606	-721.07312	111.69046	1445.78198	-859.60999	222.01782	931.41901	
358	3.570	52.73687	1908.70874	2605.36060	-696.24756	1341.48999	1392.39954										-893.74811	1484.26709	1328.08264							-449.83847	1216.81384	1153.19019	-1008.10132	1230.76440	1257.15320	-484.54843	1195.45996	1364.12427	-912.29254	1114.65796	1437.32190	-576.29462	942.26813	1393.33533	-854.74420	972.83966	1401.66895	-727.91772	973.13635	1095.00134	-619.67920	504.90906	1418.97913	-911.59222	513.51282	1245.59204	-720.84155	112.36369	1445.15112	-863.23004	230.01114	949.32800	
359	3.580	52.14045	1908.37061	2606.45532	-694.24396	1342.61621	1401.59790										-892.55115	1485.56860	1337.72742							-448.73386	1218.60559	1161.42554	-1005.94733	1231.97620	1268.37769	-481.37796	1195.44397	1371.45569	-909.29651	1115.28430	1448.34448	-574.39246	944.07245	1401.29468	-851.73987	974.25140	1415.08081	-728.03217	973.57098	1108.42139	-616.75201	510.44028	1426.50073	-914.20050	514.06128	1263.19128	-720.59692	112.02269	1446.12366	-866.96667	238.03494	967.91193	
360	3.590	51.78131	1908.27112	2607.02490	-691.95001	1343.63916	1410.72095							-722.77655	1533.40222	1191.75439	-890.57098	1486.84326	1347.49280							-448.56241	1219.83887	1165.75098	-1003.33734	1232.53320	1279.39111	-479.50882	1197.12109	1378.95142	-906.67523	1116.76819	1459.30627	-572.61700	946.30811	1410.54968	-850.19934	976.99078	1428.01941	-727.89941	973.64691	1120.74963	-614.64343	513.87549	1433.47510	-914.34937	515.03271	1284.04932	-720.43451	112.12318	1446.12708	-870.84833	247.72729	985.75488	
361	3.600	50.59186	1908.26306	2608.91016	-689.64026	1344.82190	1419.69592										-889.14014	1488.32837	1357.30872							-447.06729	1220.51990	1172.09204	-1001.44318	1233.64673	1290.30566	-476.67145	1198.58630	1385.98547	-903.58453	1118.03674	1470.14172	-571.57233	947.42230	1417.71594	-846.97906	978.13074	1440.43823	-727.17719	975.05688	1132.89282	-611.53937	517.14099	1441.44824	-915.07330	516.18530	1307.82739	-720.29236	112.21909	1446.13330	-874.78534	255.97810	1004.84314	
362	3.610	49.90931	1908.18933	2610.00928	-687.40472	1346.08789	1428.35132							-717.19574	1533.20593	1208.53564	-887.89246	1489.87097	1367.07422							-445.59360	1223.01343	1182.45422	-1000.06671	1234.50488	1301.09277	-473.87814	1199.10242	1391.32776	-900.47369	1119.40796	1481.03162	-568.07684	949.24475	1425.33130	-845.48773	980.66107	1452.34265	-726.30530	975.36713	1144.28564	-608.89191	519.76978	1448.60254	-915.62866	516.95691	1330.60474	-719.68628	112.59676	1446.80396	-878.55402	263.42102	1025.97314	
363	3.620	48.92986	1908.28992	2611.44336	-685.39850	1347.16345	1436.81067										-886.23846	1490.90613	1376.59802							-445.80725	1223.95654	1185.37317	-998.87592	1235.27307	1311.75195	-471.34158	1200.12231	1397.84106	-897.69843	1121.41711	1491.78772	-565.79944	950.51764	1432.37256	-843.64368	982.47144	1463.79089	-725.68494	976.39581	1156.60730	-606.48010	520.55664	1454.71057	-916.23920	516.05170	1357.83252	-719.68597	112.85338	1446.98218	-882.48865	270.14255	1046.94324	
364	3.630	48.07152	1908.66809	2612.64746	-683.47266	1348.23828	1445.15601										-884.30328	1491.74268	1386.06335							-444.37555	1225.92969	1192.96338	-997.50507	1235.92737	1322.31689	-468.92010	1201.69800	1404.78821	-894.58832	1122.97644	1502.62610	-563.49121	951.79596	1439.88330	-841.78278	984.10052	1474.84717	-725.17639	977.60101	1167.82397	-603.34650	520.73334	1461.10449	-916.70471	514.60004	1385.75342	-719.56665	112.96077	1447.53491	-887.05615	276.51538	1069.37366	
365	3.640	47.29190	1908.46021	2613.99365	-682.00012	1349.28833	1453.14441										-882.89355	1492.91943	1395.38074							-443.49713	1228.31128	1197.16541	-996.10120	1236.51233	1333.06897	-466.22150	1202.59521	1410.96301	-891.39502	1124.46704	1513.39453	-560.91504	952.82330	1445.97729	-840.65521	986.00800	1485.53613	-724.51379	978.30457	1179.26318	-599.87146	520.34875	1466.22217	-916.33038	513.09967	1414.09460	-719.57562	113.78764	1448.64111	-889.66235	281.00128	1091.99634	
366	3.650	46.50406	1908.24524	2615.31812	-680.41895	1350.43848	1461.11365										-881.98871	1494.30945	1404.70764							-442.69370	1229.46826	1201.87451	-995.12885	1237.72925	1344.04480	-463.52679	1203.51074	1416.30579	-888.64246	1126.44067	1524.20239	-556.52747	954.10901	1453.42542	-839.41486	987.94751	1496.06348	-724.20276	980.30579	1190.83887	-597.22223	519.62555	1471.70837	-915.78790	511.45941	1444.97449	-719.29749	114.13338	1448.82397	-893.36743	287.02200	1113.71460	
367	3.660	45.92674	1908.26794	2616.19531													-880.44666	1495.36877	1414.11194							-441.58630	1231.53333	1209.60986	-993.04712	1237.96680	1355.17627	-460.77383	1204.70984	1422.01709				-554.03247	954.81097	1460.01416	-838.03400	989.55670	1506.32483	-724.10071	981.90833	1200.84253	-594.72119	518.24786	1478.02673				-718.73706	114.74267	1449.21729	-895.98407	291.10590	1135.12903	
368	3.670	44.68147	1908.73645	2617.97534													-878.36469	1496.14282	1423.57629							-440.29449	1233.08191	1216.53259	-991.36353	1239.06665	1366.46887	-457.70676	1206.18640	1427.48792				-550.49664	955.91467	1467.45361	-836.83551	991.26617	1516.44885	-723.45062	983.83130	1211.46204	-591.91498	517.82605	1483.24377				-718.88538	114.75729	1449.63977	-899.02820	295.09378	1157.76294	
369	3.680	44.43013	1908.59082	2618.43628													-876.80249	1497.28394	1433.24500							-439.02719	1234.12048	1222.35718	-989.48230	1239.63879	1377.86292	-454.73743	1207.54187	1433.89661				-546.95148	957.20746	1475.98535	-835.70453	993.30432	1526.47937	-723.38379	984.37238	1224.56030	-587.97797	517.03931	1488.56433				-719.51379	114.82767	1450.55640	-901.71869	297.95938	1182.54602	
370	3.690	43.59854	1908.87439	2619.60718													-875.44751	1498.78870	1442.99109							-438.76312	1236.48804	1227.35608	-988.28412	1241.01770	1389.33167	-451.47797	1208.13647	1439.50720				-544.58984	958.34991	1483.67920	-833.75958	994.99902	1536.54749	-721.96606	986.04596	1233.08679	-586.11786	515.75092	1492.56348				-719.61090	115.03308	1450.49524	-903.52606	299.28741	1205.82935	
371	3.700	42.81731	1908.65771	2620.94214													-873.93750	1500.29309	1452.79956							-437.63184	1237.39795	1231.18457	-986.66241	1242.13025	1400.77283	-449.03265	1209.57825	1445.52478				-541.16443	959.01392	1490.77368	-831.62616	996.82910	1546.57043	-720.95844	986.99670	1243.79736	-582.29846	515.34125	1495.99951				-719.63977	115.00058	1450.70056	-905.51617	300.14355	1229.41052	
372	3.710	42.49374	1908.83923	2621.36328																						-436.72125	1239.00952	1237.15564	-984.71039	1243.03223	1412.21277	-446.49490	1210.22034	1450.59534				-537.20911	960.88434	1498.15735				-720.72241	988.54272	1254.19739	-578.45032	515.87048	1499.66907				-719.50574	115.24859	1450.55933	-907.62323	300.43243	1254.17627	
373	3.720	41.38005	1909.27661	2622.88135																						-436.03668	1242.00122	1244.16992	-982.80908	1244.05066	1423.66479	-443.67084	1211.60413	1456.76343				-533.33649	962.26971	1504.59058				-719.94171	989.63953	1264.73413	-574.66107	515.16852	1503.48645				-719.41638	115.33806	1450.57520	-908.99817	299.18964	1276.82544	
374	3.730	40.86490	1909.55627	2623.56885																						-435.72763	1242.46045	1249.62842	-980.75513	1244.64124	1435.09717	-441.08942	1211.99207	1460.52063				-529.91895	963.17218	1511.20813				-719.89392	991.06793	1275.11841	-569.95758	515.33258	1507.81836				-719.30951	115.80325	1450.78845	-910.23755	297.75964	1304.30725	
375	3.740	40.69379	1909.50537	2623.87207																						-434.53299	1244.35193	1254.71619	-979.45490	1245.96155	1446.49634	-438.24741	1213.29797	1466.50476				-525.13995	963.54193	1516.34436				-719.33295	991.30560	1285.32727	-565.78687	515.52893	1511.23157				-719.37195	115.77289	1450.94788	-910.51923	295.38919	1328.90125	
376	3.750	40.07446	1909.70459	2624.75757																						-434.98050	1245.60291	1258.58032	-977.73236	1246.40906	1457.98438	-434.20731	1214.52222	1471.84961				-521.36737	964.55066	1521.34082				-720.37299	992.36243	1294.51099	-560.68549	516.26593	1515.44214				-719.66638	116.23009	1450.95923	-911.03131	292.72443	1356.17627	
377	3.760	39.43387	1909.71643	2625.78223																						-433.86414	1246.51245	1264.61707	-976.75220	1247.77856	1469.45764	-432.71545	1215.26392	1477.00562				-518.51843	964.64703	1525.29004				-721.91656	993.91309	1304.05017	-556.93103	516.31781	1519.43982				-719.41913	116.34240	1451.96094	-911.21429	288.55951	1382.71069	
